<svg t="1734267573863" class="icon" viewBox="0 0 1024 1024" version="1.1" xmlns="http://www.w3.org/2000/svg" p-id="2890" width="24" height="24"><path d="M881.3 773.7L768.6 661.4c36.3-56.2 57.4-123 57.4-194.9 0-198.6-160.8-359.4-359.4-359.4s-359.4 161-359.4 359.4c0 198.6 160.8 359.4 359.4 359.4 72 0 139.1-21.2 195.3-57.6l112.5 112.1c32 31.9 81.9 33.9 111.4 4.5 29.4-29.4 27.4-79.3-4.5-111.2z m-414.9-67.4c-132.2 0-239.6-107.2-239.6-239.6 0-132.2 107.2-239.6 239.6-239.6S706 334.3 706 466.7c-0.2 132.4-107.4 239.6-239.6 239.6z" fill="currentColor" p-id="2891"></path></svg>