<svg t="1734697076795" class="icon" viewBox="0 0 1024 1024" version="1.1" xmlns="http://www.w3.org/2000/svg" p-id="8735" width="24" height="24"><path d="M512 93.09c232.727 0 418.91 186.183 418.91 418.91S744.726 930.91 512 930.91 93.09 744.726 93.09 512 279.274 93.09 512 93.09M512 0C228.073 0 0 228.073 0 512s228.073 512 512 512 512-228.073 512-512S795.927 0 512 0z" fill="#D81E06" p-id="8736"></path><path d="M512 600.436c-27.927 0-46.545-18.618-46.545-46.545V279.273c0-23.273 18.618-46.546 46.545-46.546 23.273 0 46.545 18.618 46.545 46.546V553.89c0 27.927-18.618 46.545-46.545 46.545zM465.455 744.727a46.545 46.545 0 1 0 93.09 0 46.545 46.545 0 1 0-93.09 0z" fill="currentColor" p-id="8737"></path></svg>